<?xml version="1.0" encoding="UTF-8"?>
<svg version="1.1" xmlns="http://www.w3.org/2000/svg" width="1024" height="1024">
<path d="M0 0 C2.75818521 0.4667698 5.25813612 0.62046481 8.046875 0.515625 C8.046875 1.175625 8.046875 1.835625 8.046875 2.515625 C9.88958984 2.66064453 9.88958984 2.66064453 11.76953125 2.80859375 C17.85682218 3.48839878 23.60985426 5.14313017 29.484375 6.828125 C30.55236328 7.12396484 31.62035156 7.41980469 32.72070312 7.72460938 C47.33264183 11.85736907 62.28399214 17.26796483 71.046875 30.515625 C73.68496947 36.02061258 74.69969081 41.48200547 75.296875 47.515625 C75.38710938 48.27101563 75.47734375 49.02640625 75.5703125 49.8046875 C76.11400907 54.90841985 75.85328501 59.44676206 75.046875 64.515625 C76.61308594 64.00902344 76.61308594 64.00902344 78.2109375 63.4921875 C89.79603234 59.92385028 101.00069785 58.44228183 113.0859375 57.73339844 C115.12315943 57.62154806 115.12315943 57.62154806 117.046875 56.515625 C117.706875 56.845625 118.366875 57.175625 119.046875 57.515625 C121.31452718 57.81191591 123.58620807 58.07763184 125.859375 58.328125 C132.21994482 59.09022447 138.06426939 60.53957547 144.14453125 62.61328125 C147.05629951 63.60624486 147.05629951 63.60624486 150.23046875 63.94921875 C153.37881097 64.5823805 153.98698542 65.1877823 156.046875 67.515625 C157.71761664 68.56366094 159.40747989 69.58147563 161.109375 70.578125 C176.27166272 80.16692356 186.46425619 95.06704145 190.7578125 112.3828125 C194.75119206 132.7646069 190.07714425 153.73752586 182.046875 172.515625 C181.6446875 173.49402344 181.2425 174.47242188 180.828125 175.48046875 C178.5941761 180.70017626 176.06381254 184.97195495 172.6105957 189.46508789 C171.19287645 191.32417048 169.83959648 193.21051293 168.50390625 195.12890625 C157.51548263 210.64086976 143.94168697 224.97975091 128.046875 235.515625 C127.42135742 235.94246582 126.79583984 236.36930664 126.15136719 236.80908203 C96.44939971 257.06556914 60.83185119 271.21588319 24.71557617 273.67431641 C21.2495159 273.91963756 19.42628006 274.16499316 16.83203125 276.5625 C16.26355469 277.45453125 15.69507813 278.3465625 15.109375 279.265625 C14.44679688 280.26335937 13.78421875 281.26109375 13.1015625 282.2890625 C12.08449219 283.88621094 12.08449219 283.88621094 11.046875 285.515625 C4.89407833 294.71076393 -1.62446273 303.23082913 -8.953125 311.515625 C-9.40977539 312.03543945 -9.86642578 312.55525391 -10.33691406 313.09082031 C-25.94431041 330.78363991 -43.50750908 343.71992109 -64.953125 353.515625 C-65.91863281 353.97324219 -66.88414062 354.43085937 -67.87890625 354.90234375 C-95.51008562 367.29142983 -126.19714207 369.93787543 -156.078125 369.828125 C-157.1108252 369.82630219 -158.14352539 369.82447937 -159.20751953 369.82260132 C-174.63815955 369.77679049 -189.74485269 369.36803069 -204.953125 366.515625 C-205.93555176 366.33338379 -206.91797852 366.15114258 -207.93017578 365.96337891 C-254.18696762 357.12266681 -290.41295385 336.68100293 -319.953125 299.515625 C-320.819375 298.525625 -321.685625 297.535625 -322.578125 296.515625 C-326.82317831 291.1534524 -330.27175043 285.24872358 -333.8515625 279.4296875 C-334.46257812 278.44742187 -335.07359375 277.46515625 -335.703125 276.453125 C-336.25484375 275.55464844 -336.8065625 274.65617187 -337.375 273.73046875 C-338.92469867 271.27764762 -338.92469867 271.27764762 -341.953125 269.515625 C-341.953125 268.525625 -341.953125 267.535625 -341.953125 266.515625 C-342.8715033 264.81470571 -343.8644566 263.15377138 -344.890625 261.515625 C-357.80391796 239.80369556 -367.05335949 215.4469264 -374.953125 191.515625 C-375.18805664 190.81727539 -375.42298828 190.11892578 -375.66503906 189.39941406 C-385.18136363 161.0024988 -395.37196106 128.74797354 -394.953125 98.515625 C-395.613125 98.185625 -396.273125 97.855625 -396.953125 97.515625 C-397.57099304 84.22817557 -398.06268336 70.94331428 -398.140625 57.640625 C-398.15351563 56.60373535 -398.16640625 55.5668457 -398.1796875 54.49853516 C-398.19575358 42.00514713 -396.86174318 32.51405338 -388.56640625 22.91015625 C-371.12418467 5.83417554 -339.77148208 2.30969914 -316.953125 -1.484375 C-315.89802734 -1.6606543 -314.84292969 -1.83693359 -313.75585938 -2.01855469 C-229.72969251 -15.71456293 -142.55519318 -14.99453004 0 0 Z M-371.953125 43.515625 C-372.07526394 45.85710731 -372.07526394 45.85710731 -370.953125 48.515625 C-352.2655281 63.38942662 -322.72279367 65.24965766 -299.890625 68.765625 C-298.67631302 68.95294189 -298.67631302 68.95294189 -297.43746948 69.14404297 C-288.71203179 70.4782572 -279.97698064 71.68399008 -271.20703125 72.6875 C-270.48023666 72.77235657 -269.75344208 72.85721313 -269.00462341 72.94464111 C-265.66546311 73.31128638 -262.42396726 73.51416406 -259.06225586 73.50488281 C-255.953125 73.515625 -255.953125 73.515625 -253.953125 74.515625 C-251.05197928 74.80359113 -248.16552798 75.03847748 -245.2578125 75.234375 C-244.37128494 75.29694992 -243.48475739 75.35952484 -242.57136536 75.42399597 C-239.65731921 75.62706313 -236.74283235 75.82229093 -233.828125 76.015625 C-232.33087387 76.11600571 -232.33087387 76.11600571 -230.80337524 76.21841431 C-206.03905192 77.8664583 -181.33332403 78.587751 -156.515625 78.640625 C-155.63981781 78.64339447 -154.76401062 78.64616394 -153.86166382 78.64901733 C-151.3934078 78.65476092 -148.92528718 78.65306318 -146.45703125 78.6484375 C-145.71081512 78.65040634 -144.964599 78.65237518 -144.19577026 78.65440369 C-140.78678973 78.94320532 -140.78678973 78.94320532 -137.953125 77.515625 C-136.31631958 77.45188054 -134.67680219 77.45659498 -133.0390625 77.48828125 C-131.45448242 77.50870483 -131.45448242 77.50870483 -129.83789062 77.52954102 C-128.67966797 77.54557373 -127.52144531 77.56160645 -126.328125 77.578125 C-115.65738467 77.65819884 -105.09480018 77.30306953 -94.453125 76.578125 C-93.17356934 76.49119385 -91.89401367 76.4042627 -90.57568359 76.31469727 C-87.03350183 76.06314698 -83.49323136 75.79475665 -79.953125 75.515625 C-78.86 75.4316748 -77.766875 75.34772461 -76.640625 75.26123047 C-75.6403125 75.1788916 -74.64 75.09655273 -73.609375 75.01171875 C-72.73087891 74.94009521 -71.85238281 74.86847168 -70.94726562 74.79467773 C-68.95699876 74.72026156 -68.95699876 74.72026156 -67.953125 73.515625 C-65.82999042 73.52534704 -63.70684633 73.53708192 -61.58380127 73.55886841 C-57.08660962 73.48494297 -52.67713343 72.8443178 -48.2265625 72.23046875 C-47.21266953 72.09419067 -46.19877655 71.9579126 -45.15415955 71.81750488 C-41.87743589 71.37211435 -38.60262359 70.91457738 -35.328125 70.453125 C-34.21174652 70.29667511 -33.09536804 70.14022522 -31.94515991 69.97903442 C8.39079981 65.6834754 8.39079981 65.6834754 44.046875 48.515625 C43.716875 47.195625 43.386875 45.875625 43.046875 44.515625 C42.716875 44.845625 42.386875 45.175625 42.046875 45.515625 C41.9540625 44.3709375 41.9540625 44.3709375 41.859375 43.203125 C41.28956098 40.37309927 41.28956098 40.37309927 38.921875 38.890625 C9.55061435 24.84350034 -25.05384651 21.55215133 -57.078125 18.390625 C-58.2627684 18.26988113 -58.2627684 18.26988113 -59.47134399 18.146698 C-93.69384977 14.70158061 -128.06392129 14.15996549 -162.4309082 14.19995117 C-166.72137984 14.20456894 -171.01156696 14.19768278 -175.30200195 14.17944336 C-279.61711748 9.23969323 -279.61711748 9.23969323 -371.953125 43.515625 Z M77.046875 104.515625 C76.1496875 104.82628906 75.2525 105.13695312 74.328125 105.45703125 C70.41163857 108.99125787 70.68487547 113.90224472 70.109375 118.953125 C69.78640651 121.33812309 69.45675748 123.72222424 69.12109375 126.10546875 C68.94884277 127.3363623 68.7765918 128.56725586 68.59912109 129.83544922 C63.5424436 163.53321958 52.40493914 195.83350124 40.19506836 227.50170898 C39.43724428 229.49093677 38.72002614 231.49617159 38.046875 233.515625 C55.50163628 229.98048347 72.51242898 223.14722549 88.046875 214.515625 C88.68173828 214.16387207 89.31660156 213.81211914 89.97070312 213.44970703 C99.29454417 208.21621906 107.72628719 202.22540263 116.046875 195.515625 C116.88992188 194.86207031 117.73296875 194.20851563 118.6015625 193.53515625 C133.0749464 181.5818983 146.12750661 163.39602616 149.046875 144.515625 C149.72298786 131.68248282 149.39392897 120.0116495 141.046875 109.515625 C132.41265252 100.39585945 120.81521941 96.70961612 108.484375 96.265625 C97.44100517 96.41644492 86.90503209 99.6967345 77.046875 104.515625 Z " fill="#CAB187" transform="translate(670.953125,399.484375)"/>
<path d="M0 0 C1.38311569 2.01779215 2.63605106 4.02174675 3.875 6.125 C13.20960827 21.23920015 26.36832441 36.28233477 42 45 C40.72703613 48.81889162 38.78264601 49.98227087 35.69140625 52.40234375 C32.17043429 55.72815791 31.71157959 59.03788567 31.375 63.75 C31.26285156 65.22726562 31.26285156 65.22726562 31.1484375 66.734375 C31.07496094 67.85585938 31.07496094 67.85585938 31 69 C31.66 69.33 32.32 69.66 33 70 C33.350625 70.70125 33.70125 71.4025 34.0625 72.125 C46.01656867 89.86329545 75.83810155 95.69306966 95.33691406 99.64892578 C166.52448806 113.0604429 269.56657189 119.16325707 334 81 C338.4633182 77.82973134 343.05045303 74.23940749 345 69 C345.97828199 62.59669968 345.20129443 58.05228758 341.4453125 52.76171875 C339.43655516 50.31320642 337.33794941 48.13755375 335 46 C345 38 345 38 347.69140625 35.8671875 C350.33982199 33.72515243 352.64272969 31.46441896 355 29 C355.64839844 28.33484375 356.29679687 27.6696875 356.96484375 26.984375 C364.90893686 18.55162942 371.12523307 8.94920206 377 -1 C407.14056271 3.49847091 437.11733259 10.14460691 464 25 C464.93972656 25.51304687 465.87945313 26.02609375 466.84765625 26.5546875 C477.84624246 32.84445087 490.68215551 41.9670054 494.59375 54.6796875 C496.05149705 63.00566585 496.14923109 71.15255715 491.78125 78.578125 C456.25430298 126.88230735 372.85675631 139.19663022 317.25488281 147.73876953 C294.64964033 151.12649597 271.93261844 153.36529266 249.12716675 154.85925293 C247.74078636 154.9509848 246.3546351 155.04626995 244.96878052 155.14562988 C227.61347479 156.37724469 210.20198725 156.24425264 192.8125 156.25 C191.99592297 156.25058914 191.17934593 156.25117828 190.33802414 156.25178528 C162.13664664 156.26611852 134.0993484 155.59682508 106 153 C105.18517151 152.92503296 104.37034302 152.85006592 103.53082275 152.77282715 C44.11468061 147.22582862 -20.1885377 136.20253298 -74 109 C-74.67708008 108.66548828 -75.35416016 108.33097656 -76.05175781 107.98632812 C-90.94283706 100.59481999 -109.84096464 90.71219867 -117 75 C-117 74.34 -117 73.68 -117 73 C-117.66 72.67 -118.32 72.34 -119 72 C-119.48093427 61.47288319 -118.50583292 53.55052327 -112 45 C-111.45666016 44.22269531 -111.45666016 44.22269531 -110.90234375 43.4296875 C-104.21082425 34.63044167 -93.24127758 28.43569049 -83.6953125 23.15625 C-83.13585937 22.7746875 -82.57640625 22.393125 -82 22 C-82 21.34 -82 20.68 -82 20 C-80.97390625 19.89042969 -79.9478125 19.78085937 -78.890625 19.66796875 C-75.05540184 19.00951176 -72.25662196 17.95784848 -68.75 16.3125 C-49.70672847 7.85421356 -29.35678301 3.94655959 -9 0 C-7.38702026 -0.32230591 -7.38702026 -0.32230591 -5.74145508 -0.65112305 C-3 -1 -3 -1 0 0 Z " fill="#CAB187" transform="translate(322,692)"/>
<path d="M0 0 C11.46075933 0.50936708 20.22533622 8.23869474 28 16 C28.62648438 16.61488281 29.25296875 17.22976562 29.8984375 17.86328125 C47.52763567 36.48960601 52.87189717 63.77836839 52.28125 88.51171875 C51.31057647 112.14357476 40.59000419 132.91844497 28 152.375 C12.82319568 175.92720536 4.1051045 200.88832094 10 229 C11.85935135 236.08771088 14.54311708 242.51433224 18.046875 248.94140625 C19 251 19 251 19 254 C9.56353506 253.79030078 1.55818529 247.1023777 -5.16015625 240.93359375 C-17.49835406 227.96669796 -23.16168019 210.07860023 -23.07397461 192.41040039 C-22.33523499 168.33919153 -10.38891067 147.16738455 2.1875 127.3125 C18.36546563 101.38797312 24.50956713 73.8565793 18.140625 43.76953125 C14.94352102 30.14290614 8.75456343 16.96767508 0.59765625 5.578125 C0.07042969 4.72734375 -0.45679688 3.8765625 -1 3 C-0.67 2.01 -0.34 1.02 0 0 Z " fill="#CAB186" transform="translate(505,110)"/>
<path d="M0 0 C16.68306286 7.70638944 27.48609149 17.43218614 34 35 C40.354665 52.42408146 37.70771548 71.32491567 30.43359375 87.9453125 C26.57753356 96.16176773 22.19109797 103.83845312 17.0625 111.3125 C4.12311355 130.27831544 -4.59830619 151.92830115 -0.7578125 175.2109375 C1.21193516 185.0596758 4.90759258 193.37685678 10 202 C5.5744374 203.34620939 3.37795193 202.65221828 -0.6875 200.5625 C-10.95858024 195.07365491 -17.74093306 188.76215215 -24 179 C-26.04663962 175.97803976 -26.04663962 175.97803976 -29 174 C-29.25679964 172.17030259 -29.50802662 170.33776921 -29.65625 168.49609375 C-29.97405413 165.78042636 -29.97405413 165.78042636 -31.0078125 162.35546875 C-35.79585984 143.66600809 -30.29563221 124.37015175 -20.91308594 108.1171875 C-17.27931461 102.0316055 -13.45257354 96.07081032 -9.4140625 90.24609375 C2.37592519 73.2028286 12.0274154 54.42232852 8.69091797 33.01708984 C7.10096476 24.54749237 4.51153896 17.14617375 0.171875 9.6484375 C-1.19576481 6.55757153 -1.2876076 4.34583505 -1 1 C-0.67 0.67 -0.34 0.34 0 0 Z " fill="#CAB186" transform="translate(440,145)"/>
<path d="M0 0 C8.64375982 2.43105745 15.31708693 10.72887269 20 18 C27.78384038 32.58351703 31.04993908 48.37596259 26.5625 64.625 C21.9994775 77.20113519 14.87670061 88.3980496 7.390625 99.39794922 C-4.38547122 116.80855935 -11.66602616 133.78968574 -8.5390625 155.1484375 C-8.11010559 157.11915257 -7.57296622 159.066239 -7 161 C-10 162 -10 162 -13.3125 160.5 C-21.82018421 155.21628033 -26.10008116 146.65912146 -28.7890625 137.234375 C-33.56550366 114.94431626 -20.53027922 95.03056549 -9.6875 76.625 C1.25123202 57.68395787 6.92500749 35.73470919 1.51391602 14.07348633 C0.97137686 12.121862 0.37602747 10.18513929 -0.22265625 8.25 C-1.00302602 4.9873485 -0.95564292 3.17345575 0 0 Z " fill="#CAB186" transform="translate(590,192)"/>
<path d="M0 0 C0 0.33 0 0.66 0 1 C-6.79904944 1.74725531 -13.57227473 2.25306888 -20.40625 2.52734375 C-21.42046021 2.56866928 -22.43467041 2.60999481 -23.47961426 2.65257263 C-38.03688923 3.20119842 -52.60472695 3.34570755 -67.17016602 3.53222656 C-71.113478 3.58346524 -75.05673556 3.63860352 -79 3.69335938 C-86.66661994 3.79926985 -94.33328674 3.90104816 -102 4 C-102 3.67 -102 3.34 -102 3 C-105.63 2.67 -109.26 2.34 -113 2 C-113 1.67 -113 1.34 -113 1 C-101.07207887 0.86839207 -89.14414584 0.73792345 -77.21619701 0.60884857 C-71.67561936 0.5488583 -66.13504629 0.48849794 -60.59448242 0.42724609 C-55.23225667 0.36798019 -49.87002055 0.30974608 -44.50777626 0.25218201 C-42.4776095 0.23021541 -40.4474465 0.20789747 -38.41728783 0.18519592 C-25.61090347 0.0422797 -12.80719033 -0.02924268 0 0 Z " fill="#BA9A65" transform="translate(578,844)"/>
<path d="M0 0 C16.36790085 -0.11077817 32.66240221 -0.06508204 49 1 C49 1.33 49 1.66 49 2 C52.96 2.33 56.92 2.66 61 3 C61 3.33 61 3.66 61 4 C40.52557141 4.54679483 20.36824268 2.86005325 0 1 C0 0.67 0 0.34 0 0 Z " fill="#D7BF95" transform="translate(419,843)"/>
<path d="M0 0 C15.51 0 31.02 0 47 0 C47 0.33 47 0.66 47 1 C42.50034522 1.33810356 38.00022839 1.66962609 33.5 2 C31.59734375 2.14308594 31.59734375 2.14308594 29.65625 2.2890625 C23.4204271 2.74375792 17.25261544 3.12631546 11 3 C11 2.67 11 2.34 11 2 C7.37 1.67 3.74 1.34 0 1 C0 0.67 0 0.34 0 0 Z " fill="#C1A371" transform="translate(465,845)"/>
<path d="M0 0 C-0.33 0.61875 -0.66 1.2375 -1 1.875 C-2.14193235 3.91018344 -2.14193235 3.91018344 -2 6 C-1.54625 6.5775 -1.0925 7.155 -0.625 7.75 C3.67428527 13.70285652 3.22526748 19.96664857 3 27 C2.67 27 2.34 27 2 27 C1.98582031 26.3709375 1.97164062 25.741875 1.95703125 25.09375 C1.43959661 15.80789589 -2.25507939 10.16678456 -9 4 C-4.5 0 -4.5 0 0 0 Z " fill="#D5BD92" transform="translate(666,734)"/>
<path d="M0 0 C0.33 0 0.66 0 1 0 C1.33 4.62 1.66 9.24 2 14 C2.66 14 3.32 14 4 14 C4.57399348 18.4279497 5.0682486 22.7797164 5 27.25 C5 30.43135488 5.3685147 32.92150919 6 36 C6.03824623 38.33301986 6.04574284 40.66711508 6 43 C5.67 43 5.34 43 5 43 C4.32454235 38.81386921 3.66120923 34.62590304 3 30.4375 C2.80921875 29.25607422 2.6184375 28.07464844 2.421875 26.85742188 C1.531544 21.18156175 0.72989508 15.74817031 1 10 C0.34 9.67 -0.32 9.34 -1 9 C-0.67 6.03 -0.34 3.06 0 0 Z " fill="#D9C29C" transform="translate(275,488)"/>
<path d="M0 0 C2.30148437 4.32730518 3.43887824 8.78298448 4.6875 13.5 C4.92533203 14.35464844 5.16316406 15.20929687 5.40820312 16.08984375 C5.62798828 16.91613281 5.84777344 17.74242187 6.07421875 18.59375 C6.27619873 19.34333984 6.47817871 20.09292969 6.6862793 20.86523438 C7.03099715 23.21092534 6.72417316 24.76124323 6 27 C6 26.34 6 25.68 6 25 C5.34 25 4.68 25 4 25 C-0.59225513 8.29157175 -0.59225513 8.29157175 0 0 Z " fill="#C7AC7D" transform="translate(284,540)"/>
<path d="M0 0 C0.33 0 0.66 0 1 0 C1.02476851 4.19921466 1.04289246 8.39839029 1.05493164 12.59765625 C1.05995206 14.02539816 1.06676972 15.45313496 1.07543945 16.88085938 C1.08760553 18.93621079 1.09325128 20.99149407 1.09765625 23.046875 C1.10289307 24.28276367 1.10812988 25.51865234 1.11352539 26.79199219 C1.02071737 29.4145671 0.78356673 31.51644594 0 34 C-0.66 34 -1.32 34 -2 34 C-2.33 34.99 -2.66 35.98 -3 37 C-2.94013916 36.44199707 -2.88027832 35.88399414 -2.81860352 35.30908203 C-2.04236579 27.84126934 -1.47866038 20.36305618 -0.9375 12.875 C-0.84662109 11.63234375 -0.75574219 10.3896875 -0.66210938 9.109375 C-0.44022051 6.07300104 -0.21954388 3.03654426 0 0 Z " fill="#C1A36F" transform="translate(860,518)"/>
<path d="M0 0 C-17.14893617 5.76595745 -17.14893617 5.76595745 -26 6 C-25.01 5.67 -24.02 5.34 -23 5 C-23 4.34 -23 3.68 -23 3 C-5.17270195 -1.72423398 -5.17270195 -1.72423398 0 0 Z " fill="#C8AC7C" transform="translate(633,787)"/>
<path d="M0 0 C0 0.33 0 0.66 0 1 C-0.99 1.06058594 -1.98 1.12117188 -3 1.18359375 C-9.69466638 1.60460466 -16.35518903 2.05074129 -23 3 C-23 3.66 -23 4.32 -23 5 C-27.17737474 6.59138085 -30.53160785 7.21278058 -35 7 C-25.73809308 -1.00100375 -11.51097379 -0.54454015 0 0 Z " fill="#C3A673" transform="translate(786,494)"/>
<path d="M0 0 C0.33 0 0.66 0 1 0 C1.07347656 1.79244141 1.07347656 1.79244141 1.1484375 3.62109375 C1.68056539 15.431805 1.68056539 15.431805 4 27 C3.01 27.33 2.02 27.66 1 28 C1 27.34 1 26.68 1 26 C0.01 25.67 -0.98 25.34 -2 25 C-1.34 24.67 -0.68 24.34 0 24 C-0.17402344 23.20335937 -0.34804688 22.40671875 -0.52734375 21.5859375 C-1.1082529 17.17870942 -0.86921569 13.04593644 -0.5625 8.625 C-0.51029297 7.79355469 -0.45808594 6.96210938 -0.40429688 6.10546875 C-0.27561269 4.06991892 -0.13864593 2.03489559 0 0 Z " fill="#D9C298" transform="translate(579,326)"/>
<path d="M0 0 C7.42093318 0.76197082 14.74870091 2.27935276 22 4 C22 4.33 22 4.66 22 5 C21.37053467 4.93433838 20.74106934 4.86867676 20.0925293 4.80102539 C12.33784303 4.03906082 4.59855726 3.69353746 -3.1875 3.4375 C-4.42564453 3.39431641 -5.66378906 3.35113281 -6.93945312 3.30664062 C-9.95955262 3.20169508 -12.97971816 3.09953456 -16 3 C-16 2.67 -16 2.34 -16 2 C-14.92878906 1.93941406 -13.85757813 1.87882812 -12.75390625 1.81640625 C-11.35675609 1.73201463 -9.95962143 1.64736594 -8.5625 1.5625 C-7.50192383 1.50352539 -7.50192383 1.50352539 -6.41992188 1.44335938 C-2.91309581 1.52375562 -2.91309581 1.52375562 0 0 Z " fill="#E4D0AA" transform="translate(787,456)"/>
<path d="M0 0 C2 3 2 3 2 5 C2.66 5 3.32 5 4 5 C6.32330984 10.60526694 8.46745644 16.12524968 10 22 C3.76941065 16.32737388 0.55620898 8.34313469 0 0 Z " fill="#D7BE96" transform="translate(485,321)"/>
<path d="M0 0 C0.33 0 0.66 0 1 0 C2.11703186 3.90961152 2.25467466 5.50044586 0.375 9.1875 C-1.9329585 11.92060875 -3.82528817 13.41264408 -7 15 C-5.63408831 11.45756548 -4.09068516 8.07372071 -2.375 4.6875 C-1.70597656 3.36298828 -1.70597656 3.36298828 -1.0234375 2.01171875 C-0.68570313 1.34785156 -0.34796875 0.68398437 0 0 Z " fill="#D1B78C" transform="translate(515,223)"/>
<path d="M0 0 C-0.66 0 -1.32 0 -2 0 C-2 0.66 -2 1.32 -2 2 C-6.4482941 3.62875999 -10.68266178 4.50525722 -15.375 5.125 C-17.24285156 5.37636719 -17.24285156 5.37636719 -19.1484375 5.6328125 C-20.08945312 5.75398437 -21.03046875 5.87515625 -22 6 C-19.03319058 3.03319058 -15.52983775 2.46240549 -11.5625 1.3125 C-10.78583984 1.07466797 -10.00917969 0.83683594 -9.20898438 0.59179688 C-8.0865332 0.26211914 -8.0865332 0.26211914 -6.94140625 -0.07421875 C-6.25763916 -0.27619873 -5.57387207 -0.47817871 -4.86938477 -0.6862793 C-3 -1 -3 -1 0 0 Z " fill="#C4A774" transform="translate(734,816)"/>
<path d="M0 0 C-4.05632115 2.12635671 -8.18516109 3.39092113 -12.5625 4.6875 C-13.33013672 4.92533203 -14.09777344 5.16316406 -14.88867188 5.40820312 C-20.64308036 7.11897321 -20.64308036 7.11897321 -24 6 C-23.34 6 -22.68 6 -22 6 C-22 5.34 -22 4.68 -22 4 C-14.99446211 1.34925593 -7.49919712 -0.18985309 0 0 Z " fill="#D7C095" transform="translate(339,426)"/>
<path d="M0 0 C-2.91355841 0.86627405 -5.83004328 1.71831006 -8.75 2.5625 C-9.575 2.80935547 -10.4 3.05621094 -11.25 3.31054688 C-12.04921875 3.53935547 -12.8484375 3.76816406 -13.671875 4.00390625 C-14.4050293 4.21861572 -15.13818359 4.4333252 -15.89355469 4.65454102 C-18.23869816 5.03914672 -19.75825808 4.72878764 -22 4 C-21.01 4 -20.02 4 -19 4 C-19 3.34 -19 2.68 -19 2 C-5.43194531 -1.57054071 -5.43194531 -1.57054071 0 0 Z " fill="#D7BF95" transform="translate(723,821)"/>
<path d="M0 0 C0.33 0.66 0.66 1.32 1 2 C1.66 2 2.32 2 3 2 C3.39832031 2.81984375 3.79664063 3.6396875 4.20703125 4.484375 C4.73683594 5.56203125 5.26664063 6.6396875 5.8125 7.75 C6.33457031 8.81734375 6.85664062 9.8846875 7.39453125 10.984375 C8.7616692 13.55233242 10.17715463 15.74470783 12 18 C8.42071281 16.55898828 6.92599226 14.85719199 4.875 11.625 C4.37742187 10.85414063 3.87984375 10.08328125 3.3671875 9.2890625 C0 3.65142857 0 3.65142857 0 0 Z " fill="#D2B98E" transform="translate(563,332)"/>
<path d="M0 0 C0 0.66 0 1.32 0 2 C-2.39387157 2.67449966 -4.78969221 3.33976641 -7.1875 4 C-7.86103516 4.19078125 -8.53457031 4.3815625 -9.22851562 4.578125 C-12.90555156 5.5825836 -16.1850182 6.23704741 -20 6 C-16.41588944 4.08187048 -12.6910399 2.70268573 -8.875 1.3125 C-8.24207031 1.07466797 -7.60914063 0.83683594 -6.95703125 0.59179688 C-2.23506773 -1.11753387 -2.23506773 -1.11753387 0 0 Z " fill="#D4BB8F" transform="translate(588,758)"/>
<path d="M0 0 C3.75730247 1.6281644 6.616823 4.01401917 9.75 6.625 C11.22726563 7.85089844 11.22726563 7.85089844 12.734375 9.1015625 C13.85585937 10.04128906 13.85585937 10.04128906 15 11 C13.18359375 11.625 13.18359375 11.625 11 12 C6.16007703 8.7047333 3.22889698 4.84334546 0 0 Z " fill="#C6AB7A" transform="translate(214,776)"/>
<path d="M0 0 C0.33 0.99 0.66 1.98 1 3 C-0.89248819 3.67610423 -2.7891602 4.34050439 -4.6875 5 C-6.27111328 5.556875 -6.27111328 5.556875 -7.88671875 6.125 C-10.78362056 6.9391857 -13.01700623 7.17709796 -16 7 C-12.25 5 -12.25 5 -10 5 C-10 4.34 -10 3.68 -10 3 C-5.05 1.515 -5.05 1.515 0 0 Z " fill="#D2B98C" transform="translate(745,659)"/>
<path d="M0 0 C0.66 0.99 1.32 1.98 2 3 C1.125 5.6875 1.125 5.6875 0 8 C-0.66 8 -1.32 8 -2 8 C-2.103125 8.639375 -2.20625 9.27875 -2.3125 9.9375 C-2.539375 10.618125 -2.76625 11.29875 -3 12 C-3.99 12.33 -4.98 12.66 -6 13 C-4.58707905 8.1725201 -2.57025846 4.2837641 0 0 Z " fill="#D1B88E" transform="translate(573,282)"/>
<path d="M0 0 C6.93 0 13.86 0 21 0 C21 0.66 21 1.32 21 2 C21.99 2.33 22.98 2.66 24 3 C21.3122562 2.85790331 18.62486698 2.7114277 15.9375 2.5625 C15.18533203 2.52318359 14.43316406 2.48386719 13.65820312 2.44335938 C9.05301259 2.18419281 4.55633276 1.7200579 0 1 C0 0.67 0 0.34 0 0 Z " fill="#DEC7A2" transform="translate(393,840)"/>
<path d="M0 0 C0.33 0.66 0.66 1.32 1 2 C1.66 2 2.32 2 3 2 C5.03993514 6.92984325 6.40652968 10.57960425 6 16 C3.63224279 13.63224279 3.00103504 11.70288662 1.875 8.5625 C1.52179688 7.59441406 1.16859375 6.62632812 0.8046875 5.62890625 C0 3 0 3 0 0 Z " fill="#D1B88C" transform="translate(301,602)"/>
<path d="M0 0 C0 0.33 0 0.66 0 1 C-1.12019531 1.12117187 -2.24039063 1.24234375 -3.39453125 1.3671875 C-4.86723636 1.53603267 -6.33989004 1.70532697 -7.8125 1.875 C-8.55048828 1.95363281 -9.28847656 2.03226563 -10.04882812 2.11328125 C-13.71506181 2.54460286 -15.87951745 2.9196783 -19 5 C-18.03582496 2.10747487 -17.27985088 1.15068894 -14.5625 -0.3125 C-9.58723725 -1.27263842 -4.99247576 -0.65737225 0 0 Z " fill="#DCC59E" transform="translate(706,671)"/>
<path d="M0 0 C2 2 2 2 2 5 C2.66 5 3.32 5 4 5 C4 9.95 4 14.9 4 20 C3.67 20 3.34 20 3 20 C2.49685437 17.22970414 1.99736162 14.4588348 1.5 11.6875 C1.35691406 10.90181641 1.21382812 10.11613281 1.06640625 9.30664062 C0.93105469 8.54931641 0.79570313 7.79199219 0.65625 7.01171875 C0.53056641 6.31522217 0.40488281 5.61872559 0.27539062 4.90112305 C0 3 0 3 0 0 Z " fill="#C1A46E" transform="translate(551,164)"/>
<path d="M0 0 C0.66 0.66 1.32 1.32 2 2 C1.67 2.33 1.34 2.66 1 3 C2.32 3.99 3.64 4.98 5 6 C4.34 7.98 3.68 9.96 3 12 C0.33973399 9.17346736 -0.93491949 7.67683725 -1.3125 3.75 C-1 1 -1 1 0 0 Z " fill="#D0B98E" transform="translate(440,145)"/>
<path d="M0 0 C4.95258714 3.77339973 8.43679155 7.90789714 12 13 C7.1112285 11.97937964 5.03606632 9.5732859 2.3125 5.4375 C1 3 1 3 0 0 Z " fill="#D5BC91" transform="translate(333,710)"/>
<path d="M0 0 C-3.5458668 2.954889 -7.63781033 5.45934985 -12 7 C-12.99 6.67 -13.98 6.34 -15 6 C-14.401875 5.731875 -13.80375 5.46375 -13.1875 5.1875 C-10.96966765 4.11763032 -10.96966765 4.11763032 -9.4375 2.4375 C-6.67572973 -0.32427027 -3.67280713 -0.09926506 0 0 Z " fill="#D4BC91" transform="translate(776,799)"/>
<path d="M0 0 C1.35304209 4.05912626 0.15216503 5.77149591 -1.4375 9.6875 C-2.14712891 11.45673828 -2.14712891 11.45673828 -2.87109375 13.26171875 C-3.24363281 14.16535156 -3.61617187 15.06898438 -4 16 C-5.08577754 12.74266739 -4.90445241 11.67810011 -4.125 8.4375 C-3.94195313 7.65246094 -3.75890625 6.86742187 -3.5703125 6.05859375 C-3 4 -3 4 -2 2 C-1.34 2 -0.68 2 0 2 C0 1.34 0 0.68 0 0 Z " fill="#D5BD92" transform="translate(716,611)"/>
<path d="M0 0 C0.33 0 0.66 0 1 0 C0.85899143 2.27113803 0.71203245 4.54190725 0.5625 6.8125 C0.48128906 8.07707031 0.40007812 9.34164062 0.31640625 10.64453125 C0 14 0 14 -1 17 C-1.99 17.33 -2.98 17.66 -4 18 C-2.68 12.06 -1.36 6.12 0 0 Z " fill="#C5A772" transform="translate(474,210)"/>
<path d="M0 0 C1.60938465 2.41407698 2.65490738 4.34044437 3.6875 7 C3.95949219 7.680625 4.23148437 8.36125 4.51171875 9.0625 C5 11 5 11 4 14 C4 13.34 4 12.68 4 12 C3.34 12 2.68 12 2 12 C-0.60018816 8.09971775 -0.15085514 4.52565431 0 0 Z " fill="#C8AC7B" transform="translate(298,590)"/>
<path d="M0 0 C3.10433938 0.82782384 5.43618934 1.47507284 7.8125 3.6875 C9.38059648 6.74116157 9.67372241 9.60671302 10 13 C9.58105469 12.42636719 9.16210938 11.85273437 8.73046875 11.26171875 C6.44344174 8.27257961 3.93632075 5.50864779 1.42578125 2.70703125 C0 1 0 1 0 0 Z " fill="#D6BE93" transform="translate(807,504)"/>
<path d="M0 0 C0.33 0 0.66 0 1 0 C1.66 5.94 2.32 11.88 3 18 C2.01 17.67 1.02 17.34 0 17 C-0.98844951 13.05352382 -0.96191905 9.72607036 -0.5625 5.6875 C-0.46066406 4.61886719 -0.35882813 3.55023438 -0.25390625 2.44921875 C-0.17011719 1.64097656 -0.08632813 0.83273437 0 0 Z " fill="#D9C299" transform="translate(512,324)"/>
<path d="M0 0 C5.8997555 5.58924205 5.8997555 5.58924205 7 9 C6.625 11.25 6.625 11.25 6 13 C5.05598958 11.20963542 4.11197917 9.41927083 3.16796875 7.62890625 C2.00980201 5.67732013 2.00980201 5.67732013 -1 5 C-0.67 3.35 -0.34 1.7 0 0 Z " fill="#D4BC92" transform="translate(412,314)"/>
<path d="M0 0 C0 0.66 0 1.32 0 2 C-1.74906659 2.19601608 -3.49931846 2.38147403 -5.25 2.5625 C-6.22453125 2.66691406 -7.1990625 2.77132812 -8.203125 2.87890625 C-10.7631352 2.98974468 -12.58148159 2.77738092 -15 2 C-13.25364835 1.46706165 -11.50272348 0.94909337 -9.75 0.4375 C-8.77546875 0.14746094 -7.8009375 -0.14257812 -6.796875 -0.44140625 C-4.03756068 -0.99249836 -2.6087176 -0.93789609 0 0 Z " fill="#BEA270" transform="translate(306,696)"/>
<path d="M0 0 C-1.95330868 1.03041513 -3.91281528 2.0490893 -5.875 3.0625 C-6.96554687 3.63097656 -8.05609375 4.19945312 -9.1796875 4.78515625 C-10.11039062 5.18605469 -11.04109375 5.58695312 -12 6 C-12.66 5.67 -13.32 5.34 -14 5 C-10.28330263 0.53996316 -5.73574762 -1.91191587 0 0 Z " fill="#C2A673" transform="translate(303,414)"/>
<path d="M0 0 C0.66 0 1.32 0 2 0 C2.433125 0.598125 2.86625 1.19625 3.3125 1.8125 C4.90488783 4.15921802 4.90488783 4.15921802 7.5625 5.5 C10.19080689 7.11741962 10.92500657 8.16592641 12 11 C9.09220751 9.65843569 6.7482101 8.13892965 4.3125 6.0625 C3.71050781 5.55847656 3.10851562 5.05445313 2.48828125 4.53515625 C1 3 1 3 0 0 Z " fill="#D6BE94" transform="translate(497,346)"/>
<path d="M0 0 C0.33 0 0.66 0 1 0 C0.67 3.3 0.34 6.6 0 10 C-0.66 10 -1.32 10 -2 10 C-2.66 11.32 -3.32 12.64 -4 14 C-3.00956295 9.16371695 -2.04301154 4.52381127 0 0 Z " fill="#C7AA77" transform="translate(725,582)"/>
<path d="M0 0 C4.63425362 -0.32332002 7.28683289 0.1355568 11 3 C11.33 3.99 11.66 4.98 12 6 C8 6 8 6 6.5625 4.625 C6.046875 4.08875 5.53125 3.5525 5 3 C2.40084462 1.80972016 2.40084462 1.80972016 0 1 C0 0.67 0 0.34 0 0 Z " fill="#D1B88D" transform="translate(700,434)"/>
<path d="M0 0 C0 3.73389488 -1.37132639 4.67803606 -3.75390625 7.37109375 C-5.54080595 9.70694697 -6.26195765 12.18202011 -7 15 C-8.01688584 12.3560968 -7.9773725 10.88183417 -7.4375 8.0625 C-5.58219077 4.10988469 -3.48675226 2.57716471 0 0 Z " fill="#BEA16D" transform="translate(284,423)"/>
<path d="M0 0 C0.66 0.33 1.32 0.66 2 1 C-1.49087093 5.0042343 -3.64951939 6.62671065 -9 7 C-6.3765992 4.08511023 -3.28183606 2.11496102 0 0 Z " fill="#D3B98D" transform="translate(772,605)"/>
<path d="M0 0 C0 0.66 0 1.32 0 2 C-1.4117783 2.53394179 -2.82970244 3.05165104 -4.25 3.5625 C-5.03890625 3.85253906 -5.8278125 4.14257812 -6.640625 4.44140625 C-9.19103452 5.04522837 -10.55322229 4.8473932 -13 4 C-12.34 4 -11.68 4 -11 4 C-11 3.34 -11 2.68 -11 2 C-9.5422647 1.664061 -8.08378894 1.33133376 -6.625 1 C-5.40683594 0.7215625 -5.40683594 0.7215625 -4.1640625 0.4375 C-2 0 -2 0 0 0 Z " fill="#C5A976" transform="translate(704,456)"/>
<path d="M0 0 C0.33 0 0.66 0 1 0 C1.125 5.75 1.125 5.75 0 8 C-0.66 8 -1.32 8 -2 8 C-2.33 9.98 -2.66 11.96 -3 14 C-3.33 14 -3.66 14 -4 14 C-3.46148032 8.72250715 -2.22656164 4.74354436 0 0 Z " fill="#C5A876" transform="translate(583,310)"/>
<path d="M0 0 C0.33 0.66 0.66 1.32 1 2 C-1.19566645 8.47143795 -1.19566645 8.47143795 -4.1875 10.4375 C-5.0846875 10.7159375 -5.0846875 10.7159375 -6 11 C-4.54955729 6.89041233 -2.48889248 3.56741255 0 0 Z " fill="#C8AB7B" transform="translate(845,581)"/>
<path d="M0 0 C6.4 0.49230769 6.4 0.49230769 9.4375 3.0625 C10.2109375 4.0215625 10.2109375 4.0215625 11 5 C10.01 5.495 10.01 5.495 9 6 C6.8359375 5.00390625 6.8359375 5.00390625 4.375 3.5625 C3.55773437 3.08941406 2.74046875 2.61632812 1.8984375 2.12890625 C1.27195312 1.75636719 0.64546875 1.38382812 0 1 C0 0.67 0 0.34 0 0 Z " fill="#C6AA79" transform="translate(822,467)"/>
<path d="M0 0 C0.33 0 0.66 0 1 0 C1.125 5.75 1.125 5.75 0 8 C-0.66 8 -1.32 8 -2 8 C-2.33 9.98 -2.66 11.96 -3 14 C-4.37095624 10.30962722 -3.60010967 8.29116165 -2.0625 4.75 C-1.68222656 3.85796875 -1.30195313 2.9659375 -0.91015625 2.046875 C-0.60980469 1.37140625 -0.30945313 0.6959375 0 0 Z " fill="#C4A671" transform="translate(442,277)"/>
<path d="M0 0 C0.66 0.99 1.32 1.98 2 3 C-1.625 8.875 -1.625 8.875 -5 10 C-3.66511872 6.40608886 -2.03977277 3.24509304 0 0 Z " fill="#D2B88B" transform="translate(504,243)"/>
<path d="M0 0 C0.33 0.66 0.66 1.32 1 2 C-1.19566645 8.47143795 -1.19566645 8.47143795 -4.1875 10.4375 C-5.0846875 10.7159375 -5.0846875 10.7159375 -6 11 C-4.54955729 6.89041233 -2.48889248 3.56741255 0 0 Z " fill="#C9AC7A" transform="translate(462,243)"/>
<path d="M0 0 C-3.32307692 3.93846154 -3.32307692 3.93846154 -6.75 4.25 C-7.4925 4.1675 -8.235 4.085 -9 4 C-6.56225426 0.2214941 -6.56225426 0.2214941 -3.9375 -0.8125 C-2 -1 -2 -1 0 0 Z " fill="#C7AB7A" transform="translate(782,795)"/>
<path d="M0 0 C1.32 1.32 2.64 2.64 4 4 C3.67 4.66 3.34 5.32 3 6 C-3.75 5.25 -3.75 5.25 -6 3 C-4.02 3 -2.04 3 0 3 C0 2.01 0 1.02 0 0 Z " fill="#DEC79F" transform="translate(446,342)"/>
<path d="M0 0 C4.38889325 0.66498383 7.9811485 2.18757677 12 4 C12 4.33 12 4.66 12 5 C6.25 5.125 6.25 5.125 4 4 C4 3.34 4 2.68 4 2 C2.68 1.34 1.36 0.68 0 0 Z " fill="#DBC49B" transform="translate(374,779)"/>
<path d="M0 0 C2.31 1.65 4.62 3.3 7 5 C6.67 6.32 6.34 7.64 6 9 C4.99406757 7.8803014 3.9954151 6.7540588 3 5.625 C2.443125 4.99851562 1.88625 4.37203125 1.3125 3.7265625 C0 2 0 2 0 0 Z " fill="#C2A674" transform="translate(805,733)"/>
<path d="M0 0 C0.33 0 0.66 0 1 0 C1.125 6.75 1.125 6.75 0 9 C-0.66 9 -1.32 9 -2 9 C-2.33 9.66 -2.66 10.32 -3 11 C-2.44894091 7.0507432 -1.61064629 3.65079826 0 0 Z " fill="#C6A975" transform="translate(718,602)"/>
<path d="M0 0 C1.5 1.3125 1.5 1.3125 3 3 C3 3.99 3 4.98 3 6 C-3.75 5.25 -3.75 5.25 -6 3 C-4.02 3 -2.04 3 0 3 C0 2.01 0 1.02 0 0 Z " fill="#E4CDAA" transform="translate(521,358)"/>
<path d="M0 0 C0.33 0 0.66 0 1 0 C0.88541307 1.43836751 0.75790884 2.87570966 0.625 4.3125 C0.55539062 5.11300781 0.48578125 5.91351563 0.4140625 6.73828125 C0 9 0 9 -2 12 C-2 9.03 -2 6.06 -2 3 C-1.34 3 -0.68 3 0 3 C0 2.01 0 1.02 0 0 Z " fill="#C5AA79" transform="translate(450,197)"/>
<path d="M0 0 C2.4375 1.125 2.4375 1.125 5 3 C5.8125 6.1875 5.8125 6.1875 6 9 C2.91910327 6.22719294 1.31224548 3.93673644 0 0 Z " fill="#C6AA78" transform="translate(463,164)"/>
<path d="M0 0 C1.258125 0.12375 2.51625 0.2475 3.8125 0.375 C4.87404297 0.47941406 4.87404297 0.47941406 5.95703125 0.5859375 C8 1 8 1 11 3 C8.03 3 5.06 3 2 3 C2 2.34 2 1.68 2 1 C1.34 0.67 0.68 0.34 0 0 Z " fill="#C2A572" transform="translate(329,826)"/>
<path d="M0 0 C0.33 0.66 0.66 1.32 1 2 C-0.65 4.31 -2.3 6.62 -4 9 C-4.66 8.67 -5.32 8.34 -6 8 C-5.34 7.34 -4.68 6.68 -4 6 C-3.67 5.154375 -3.34 4.30875 -3 3.4375 C-2 1 -2 1 0 0 Z " fill="#C4A775" transform="translate(668,762)"/>
<path d="M0 0 C1.39195915 4.17587745 -0.17676781 6.13474776 -2 10 C-2.33 10 -2.66 10 -3 10 C-3.125 4.25 -3.125 4.25 -2 2 C-1.34 2 -0.68 2 0 2 C0 1.34 0 0.68 0 0 Z " fill="#D3BB90" transform="translate(855,562)"/>
<path d="M0 0 C1.31223496 3.93670488 0.24296256 6.12488144 -1 10 C-2.57035335 7.50590939 -3.0274945 6.29556584 -2.75 3.3125 C-2.5025 2.549375 -2.255 1.78625 -2 1 C-1.34 0.67 -0.68 0.34 0 0 Z " fill="#D4BB90" transform="translate(516,291)"/>
<path d="M0 0 C4.75 0.875 4.75 0.875 7 2 C6.67 2.99 6.34 3.98 6 5 C4 4 2 3 0 2 C0 1.34 0 0.68 0 0 Z " fill="#D4BC93" transform="translate(357,735)"/>
<path d="M0 0 C1.32 0.33 2.64 0.66 4 1 C1.03 3.475 1.03 3.475 -2 6 C-2.66 5.67 -3.32 5.34 -4 5 C-2.68 3.35 -1.36 1.7 0 0 Z " fill="#C3A877" transform="translate(225,723)"/>
<path d="M0 0 C3.0916909 2.52956528 3.90931332 5.22454612 5 9 C3.0625 8.4375 3.0625 8.4375 1 7 C0.25 3.375 0.25 3.375 0 0 Z " fill="#C7AA77" transform="translate(321,647)"/>
<path d="M0 0 C0.59296875 0.21527344 1.1859375 0.43054688 1.796875 0.65234375 C0.51163239 1.51614634 -0.78154919 2.36814744 -2.078125 3.21484375 C-2.79742188 3.69050781 -3.51671875 4.16617188 -4.2578125 4.65625 C-4.89976562 4.98496094 -5.54171875 5.31367187 -6.203125 5.65234375 C-6.863125 5.32234375 -7.523125 4.99234375 -8.203125 4.65234375 C-2.74543269 -0.43323317 -2.74543269 -0.43323317 0 0 Z " fill="#D5BE94" transform="translate(788.203125,640.34765625)"/>
<path d="M0 0 C1.26706235 3.80118706 0.57172296 5.3850372 -1 9 C-1.99 9.33 -2.98 9.66 -4 10 C-2.8905928 6.51329166 -1.73662334 3.22515763 0 0 Z " fill="#DAC39A" transform="translate(815,558)"/>
<path d="M0 0 C4.61487965 1.45733042 4.61487965 1.45733042 6.375 3.9375 C7 6 7 6 6 9 C5.7525 8.4225 5.505 7.845 5.25 7.25 C3.83530186 4.70354336 2.08439228 3.01491254 0 1 C0 0.67 0 0.34 0 0 Z " fill="#C2A673" transform="translate(711,438)"/>
<path d="M0 0 C-0.66 0 -1.32 0 -2 0 C-2 0.66 -2 1.32 -2 2 C-4.31 2.33 -6.62 2.66 -9 3 C-6.07868595 -0.19953443 -4.37453972 -1.45817991 0 0 Z " fill="#C8AC79" transform="translate(317,432)"/>
<path d="M0 0 C1 3 1 3 -0.4375 6.1875 C-1.2109375 7.5796875 -1.2109375 7.5796875 -2 9 C-2.33 9 -2.66 9 -3 9 C-2.4140625 2.84765625 -2.4140625 2.84765625 -2 1 C-1.34 0.67 -0.68 0.34 0 0 Z " fill="#D3BB8F" transform="translate(471,227)"/>
<path d="M0 0 C2.31 0.33 4.62 0.66 7 1 C7.33 1.99 7.66 2.98 8 4 C4.31245243 3.50168276 2.39509338 2.89932357 0 0 Z " fill="#C3A776" transform="translate(440,147)"/>
<path d="M0 0 C1.65 1.65 3.3 3.3 5 5 C4.67 5.99 4.34 6.98 4 8 C4 7.34 4 6.68 4 6 C2.68 5.34 1.36 4.68 0 4 C0 2.68 0 1.36 0 0 Z " fill="#D1B98C" transform="translate(737,425)"/>
<path d="M0 0 C0.33 0 0.66 0 1 0 C1 2.31 1 4.62 1 7 C0.67 7 0.34 7 0 7 C0 4.69 0 2.38 0 0 Z " fill="#D2B88B" transform="translate(592,217)"/>
<path d="M0 0 C1.65 0 3.3 0 5 0 C5 0.33 5 0.66 5 1 C3.35 1 1.7 1 0 1 C0 0.67 0 0.34 0 0 Z " fill="#CDB281" transform="translate(432,846)"/>
<path d="M0 0 C0.33 0 0.66 0 1 0 C1 1.65 1 3.3 1 5 C0.67 5 0.34 5 0 5 C0 3.35 0 1.7 0 0 Z " fill="#CCB285" transform="translate(280,536)"/>
<path d="M0 0 C4 1 4 1 4 1 Z " fill="#D0B88A" transform="translate(384,392)"/>
<path d="M0 0 C1 4 1 4 1 4 Z " fill="#D1B889" transform="translate(592,227)"/>
<path d="M0 0 C3 1 3 1 3 1 Z " fill="#CBB282" transform="translate(601,845)"/>
<path d="M0 0 C0.33 0.66 0.66 1.32 1 2 C0.34 1.67 -0.32 1.34 -1 1 C-0.67 0.67 -0.34 0.34 0 0 Z " fill="#D3BA8D" transform="translate(657,740)"/>
<path d="M0 0 C3 1 3 1 3 1 Z " fill="#D1B789" transform="translate(733,696)"/>
<path d="M0 0 C0.66 0.66 1.32 1.32 2 2 C1.34 2 0.68 2 0 2 C0 1.34 0 0.68 0 0 Z " fill="#CEB386" transform="translate(304,618)"/>
<path d="M0 0 C3 1 3 1 3 1 Z " fill="#D0B889" transform="translate(357,464)"/>
<path d="" fill="#CEB485" transform="translate(0,0)"/>
<path d="" fill="#D2B889" transform="translate(0,0)"/>
<path d="M0 0 C2 1 2 1 2 1 Z " fill="#CFB484" transform="translate(444,847)"/>
<path d="M0 0 C2 1 2 1 2 1 Z " fill="#C9AD7E" transform="translate(425,845)"/>
<path d="M0 0 C2 1 2 1 2 1 Z " fill="#CBAF81" transform="translate(371,838)"/>
<path d="M0 0 C2 1 2 1 2 1 Z " fill="#CAB082" transform="translate(691,830)"/>
<path d="M0 0 C2 1 2 1 2 1 Z " fill="#CBB082" transform="translate(331,830)"/>
<path d="M0 0 C2 1 2 1 2 1 Z " fill="#CAB184" transform="translate(696,829)"/>
<path d="" fill="#C2AA7D" transform="translate(0,0)"/>
<path d="" fill="#D5BC8D" transform="translate(0,0)"/>
<path d="M0 0 C2 1 2 1 2 1 Z " fill="#D3B98D" transform="translate(360,742)"/>
<path d="" fill="#D5BB8F" transform="translate(0,0)"/>
<path d="M0 0 C2 1 2 1 2 1 Z " fill="#D2B98A" transform="translate(656,736)"/>
<path d="M0 0 C2 1 2 1 2 1 Z " fill="#CCB386" transform="translate(259,704)"/>
<path d="M0 0 C2 1 2 1 2 1 Z " fill="#D2B88A" transform="translate(749,616)"/>
<path d="" fill="#CCB284" transform="translate(0,0)"/>
<path d="" fill="#CDB487" transform="translate(0,0)"/>
<path d="" fill="#CCB384" transform="translate(0,0)"/>
<path d="" fill="#CBB385" transform="translate(0,0)"/>
<path d="" fill="#CCB486" transform="translate(0,0)"/>
<path d="M0 0 C2 1 2 1 2 1 Z " fill="#D2B788" transform="translate(592,472)"/>
<path d="M0 0 C2 1 2 1 2 1 Z " fill="#D5BA8B" transform="translate(307,438)"/>
<path d="M0 0 C2 1 2 1 2 1 Z " fill="#D5BA8C" transform="translate(697,435)"/>
<path d="M0 0 C2 1 2 1 2 1 Z " fill="#D5BB8D" transform="translate(643,423)"/>
<path d="M0 0 C2 1 2 1 2 1 Z " fill="#D6BA8B" transform="translate(364,423)"/>
<path d="M0 0 C2 1 2 1 2 1 Z " fill="#D4BB8C" transform="translate(532,415)"/>
<path d="M0 0 C2 1 2 1 2 1 Z " fill="#D3B78B" transform="translate(468,415)"/>
<path d="M0 0 C2 1 2 1 2 1 Z " fill="#C9B083" transform="translate(710,408)"/>
<path d="M0 0 C2 1 2 1 2 1 Z " fill="#CBB384" transform="translate(333,400)"/>
<path d="M0 0 C2 1 2 1 2 1 Z " fill="#D1B689" transform="translate(490,341)"/>
<path d="" fill="#D1B78B" transform="translate(0,0)"/>
<path d="" fill="#D4BB8B" transform="translate(0,0)"/>
<path d="" fill="#CEB386" transform="translate(0,0)"/>
<path d="" fill="#CCB282" transform="translate(0,0)"/>
<path d="" fill="#CBB183" transform="translate(0,0)"/>
<path d="" fill="#C9AF81" transform="translate(0,0)"/>
<path d="" fill="#CCB082" transform="translate(0,0)"/>
<path d="" fill="#CDB486" transform="translate(0,0)"/>
<path d="" fill="#CCB186" transform="translate(0,0)"/>
<path d="" fill="#CBB183" transform="translate(0,0)"/>
<path d="" fill="#C9AD7D" transform="translate(0,0)"/>
<path d="" fill="#CBB386" transform="translate(0,0)"/>
<path d="" fill="#C8AE7F" transform="translate(0,0)"/>
<path d="" fill="#C8B081" transform="translate(0,0)"/>
<path d="" fill="#CAAF83" transform="translate(0,0)"/>
<path d="" fill="#CCB486" transform="translate(0,0)"/>
<path d="" fill="#C8AE7F" transform="translate(0,0)"/>
<path d="" fill="#CAB084" transform="translate(0,0)"/>
<path d="" fill="#C8AD7F" transform="translate(0,0)"/>
<path d="" fill="#C7AF81" transform="translate(0,0)"/>
<path d="" fill="#C8AF80" transform="translate(0,0)"/>
<path d="" fill="#C2A77D" transform="translate(0,0)"/>
<path d="" fill="#D4BA89" transform="translate(0,0)"/>
<path d="" fill="#D4B988" transform="translate(0,0)"/>
<path d="" fill="#C8AF82" transform="translate(0,0)"/>
<path d="" fill="#D5BC8A" transform="translate(0,0)"/>
<path d="" fill="#D4B989" transform="translate(0,0)"/>
<path d="" fill="#D5BA8C" transform="translate(0,0)"/>
<path d="" fill="#D5BA8B" transform="translate(0,0)"/>
<path d="" fill="#C8AD80" transform="translate(0,0)"/>
<path d="" fill="#C4AC7D" transform="translate(0,0)"/>
<path d="" fill="#C5A978" transform="translate(0,0)"/>
<path d="" fill="#C6AD81" transform="translate(0,0)"/>
<path d="" fill="#D8BC8E" transform="translate(0,0)"/>
<path d="" fill="#D7BA8B" transform="translate(0,0)"/>
<path d="" fill="#D4BB89" transform="translate(0,0)"/>
<path d="" fill="#D6BB8B" transform="translate(0,0)"/>
<path d="" fill="#C3AA7B" transform="translate(0,0)"/>
<path d="" fill="#D4B98B" transform="translate(0,0)"/>
<path d="" fill="#D6BD8E" transform="translate(0,0)"/>
<path d="" fill="#C2A97D" transform="translate(0,0)"/>
<path d="" fill="#D3BA8C" transform="translate(0,0)"/>
<path d="" fill="#C3AC7E" transform="translate(0,0)"/>
<path d="" fill="#D3BA8F" transform="translate(0,0)"/>
<path d="" fill="#D6BB8F" transform="translate(0,0)"/>
<path d="" fill="#D4BA8A" transform="translate(0,0)"/>
<path d="" fill="#D2B889" transform="translate(0,0)"/>
<path d="" fill="#CFB487" transform="translate(0,0)"/>
<path d="" fill="#D0B887" transform="translate(0,0)"/>
<path d="" fill="#D5BE8E" transform="translate(0,0)"/>
<path d="" fill="#D4BB8D" transform="translate(0,0)"/>
<path d="" fill="#D3BA8C" transform="translate(0,0)"/>
<path d="" fill="#D1B98A" transform="translate(0,0)"/>
<path d="" fill="#D3BA8C" transform="translate(0,0)"/>
<path d="" fill="#D3B98F" transform="translate(0,0)"/>
<path d="" fill="#D4BC8D" transform="translate(0,0)"/>
<path d="" fill="#D1B885" transform="translate(0,0)"/>
<path d="" fill="#C6AE7E" transform="translate(0,0)"/>
<path d="" fill="#C8AB7D" transform="translate(0,0)"/>
<path d="" fill="#D2B98B" transform="translate(0,0)"/>
<path d="" fill="#CAB084" transform="translate(0,0)"/>
<path d="" fill="#C8AF82" transform="translate(0,0)"/>
<path d="" fill="#D4BC8F" transform="translate(0,0)"/>
<path d="" fill="#C9B183" transform="translate(0,0)"/>
<path d="" fill="#D1B788" transform="translate(0,0)"/>
<path d="" fill="#D5BA8D" transform="translate(0,0)"/>
<path d="" fill="#D4BA8C" transform="translate(0,0)"/>
<path d="" fill="#D2B888" transform="translate(0,0)"/>
<path d="" fill="#D5BB8E" transform="translate(0,0)"/>
<path d="" fill="#D1B786" transform="translate(0,0)"/>
<path d="" fill="#D6BB8C" transform="translate(0,0)"/>
<path d="" fill="#D7BC8D" transform="translate(0,0)"/>
<path d="" fill="#D2B889" transform="translate(0,0)"/>
<path d="" fill="#D3BA8B" transform="translate(0,0)"/>
<path d="" fill="#D0B78C" transform="translate(0,0)"/>
<path d="" fill="#D1B98C" transform="translate(0,0)"/>
<path d="" fill="#D0B687" transform="translate(0,0)"/>
<path d="" fill="#D0B688" transform="translate(0,0)"/>
<path d="" fill="#CFB486" transform="translate(0,0)"/>
<path d="" fill="#CEB386" transform="translate(0,0)"/>
<path d="" fill="#D5BD8C" transform="translate(0,0)"/>
<path d="" fill="#D8BD90" transform="translate(0,0)"/>
<path d="" fill="#D7BC8E" transform="translate(0,0)"/>
<path d="" fill="#D1B688" transform="translate(0,0)"/>
<path d="" fill="#D4BA8B" transform="translate(0,0)"/>
<path d="" fill="#D1B88C" transform="translate(0,0)"/>
<path d="" fill="#D2B88B" transform="translate(0,0)"/>
<path d="" fill="#CDB486" transform="translate(0,0)"/>
<path d="" fill="#D1B989" transform="translate(0,0)"/>
<path d="" fill="#CEB185" transform="translate(0,0)"/>
<path d="" fill="#C5AE7F" transform="translate(0,0)"/>
<path d="" fill="#CEB486" transform="translate(0,0)"/>
<path d="" fill="#D4BA8C" transform="translate(0,0)"/>
<path d="" fill="#C9AE7F" transform="translate(0,0)"/>
<path d="" fill="#CAB283" transform="translate(0,0)"/>
<path d="" fill="#C5AD7E" transform="translate(0,0)"/>
<path d="" fill="#CAB386" transform="translate(0,0)"/>
<path d="" fill="#D1B987" transform="translate(0,0)"/>
<path d="" fill="#D4B987" transform="translate(0,0)"/>
<path d="" fill="#CAB085" transform="translate(0,0)"/>
<path d="" fill="#D3B684" transform="translate(0,0)"/>
<path d="" fill="#D5B98A" transform="translate(0,0)"/>
<path d="" fill="#CFB687" transform="translate(0,0)"/>
<path d="" fill="#D4BB8D" transform="translate(0,0)"/>
<path d="" fill="#C7AF81" transform="translate(0,0)"/>
<path d="" fill="#C9B283" transform="translate(0,0)"/>
<path d="" fill="#C8AF81" transform="translate(0,0)"/>
<path d="" fill="#D4BA8A" transform="translate(0,0)"/>
<path d="" fill="#D2BA8C" transform="translate(0,0)"/>
<path d="" fill="#CFB683" transform="translate(0,0)"/>
<path d="" fill="#CEB382" transform="translate(0,0)"/>
<path d="" fill="#CFB586" transform="translate(0,0)"/>
<path d="" fill="#D0B584" transform="translate(0,0)"/>
<path d="" fill="#D4BB8F" transform="translate(0,0)"/>
<path d="" fill="#D5BB8A" transform="translate(0,0)"/>
<path d="" fill="#D3B785" transform="translate(0,0)"/>
<path d="" fill="#D6BC8D" transform="translate(0,0)"/>
<path d="" fill="#C5AB7F" transform="translate(0,0)"/>
<path d="" fill="#C6AF81" transform="translate(0,0)"/>
<path d="" fill="#D7BC8E" transform="translate(0,0)"/>
<path d="" fill="#D5BA8C" transform="translate(0,0)"/>
<path d="" fill="#C3AA7C" transform="translate(0,0)"/>
<path d="" fill="#D6BC90" transform="translate(0,0)"/>
<path d="" fill="#D6BA8E" transform="translate(0,0)"/>
<path d="" fill="#D5BC8D" transform="translate(0,0)"/>
<path d="" fill="#D4BC8E" transform="translate(0,0)"/>
<path d="" fill="#D5BB8C" transform="translate(0,0)"/>
<path d="" fill="#D6BD8E" transform="translate(0,0)"/>
<path d="" fill="#D5BB8D" transform="translate(0,0)"/>
<path d="" fill="#D4BB8B" transform="translate(0,0)"/>
<path d="" fill="#C3AC7C" transform="translate(0,0)"/>
<path d="" fill="#D7BB8D" transform="translate(0,0)"/>
<path d="" fill="#D6B98E" transform="translate(0,0)"/>
<path d="" fill="#D7BB8E" transform="translate(0,0)"/>
<path d="" fill="#D4B98B" transform="translate(0,0)"/>
<path d="" fill="#C7AE80" transform="translate(0,0)"/>
<path d="" fill="#C7AD80" transform="translate(0,0)"/>
<path d="" fill="#C7B083" transform="translate(0,0)"/>
<path d="" fill="#C9B084" transform="translate(0,0)"/>
<path d="" fill="#C9B082" transform="translate(0,0)"/>
<path d="" fill="#CCB284" transform="translate(0,0)"/>
<path d="" fill="#D0B585" transform="translate(0,0)"/>
<path d="" fill="#D0B587" transform="translate(0,0)"/>
<path d="" fill="#D1BA8A" transform="translate(0,0)"/>
<path d="" fill="#D3B98A" transform="translate(0,0)"/>
<path d="" fill="#D0B586" transform="translate(0,0)"/>
<path d="" fill="#D3BA8B" transform="translate(0,0)"/>
<path d="" fill="#D6BD8F" transform="translate(0,0)"/>
<path d="" fill="#D2B98B" transform="translate(0,0)"/>
<path d="" fill="#D5B88B" transform="translate(0,0)"/>
<path d="" fill="#D5BB8E" transform="translate(0,0)"/>
<path d="" fill="#D2B78A" transform="translate(0,0)"/>
<path d="" fill="#D2B888" transform="translate(0,0)"/>
<path d="" fill="#D0B787" transform="translate(0,0)"/>
<path d="" fill="#D3BA8A" transform="translate(0,0)"/>
<path d="" fill="#D3B98D" transform="translate(0,0)"/>
<path d="" fill="#D4B88A" transform="translate(0,0)"/>
<path d="" fill="#D0B687" transform="translate(0,0)"/>
<path d="" fill="#C9AF7E" transform="translate(0,0)"/>
<path d="" fill="#D0B888" transform="translate(0,0)"/>
<path d="" fill="#D3B98B" transform="translate(0,0)"/>
<path d="" fill="#D3B98B" transform="translate(0,0)"/>
<path d="" fill="#D2B98A" transform="translate(0,0)"/>
<path d="" fill="#D2B88B" transform="translate(0,0)"/>
<path d="" fill="#D4B98C" transform="translate(0,0)"/>
<path d="" fill="#D3BA8C" transform="translate(0,0)"/>
<path d="" fill="#CDB185" transform="translate(0,0)"/>
<path d="" fill="#CCB284" transform="translate(0,0)"/>
<path d="" fill="#CCB484" transform="translate(0,0)"/>
<path d="" fill="#CCB485" transform="translate(0,0)"/>
<path d="" fill="#CAAF82" transform="translate(0,0)"/>
<path d="" fill="#D2B88C" transform="translate(0,0)"/>
<path d="" fill="#D5BA8D" transform="translate(0,0)"/>
<path d="" fill="#D1B78B" transform="translate(0,0)"/>
<path d="" fill="#D3BC8E" transform="translate(0,0)"/>
<path d="" fill="#CCB386" transform="translate(0,0)"/>
<path d="" fill="#CCB385" transform="translate(0,0)"/>
<path d="" fill="#D1B889" transform="translate(0,0)"/>
<path d="" fill="#D3BA8C" transform="translate(0,0)"/>
<path d="" fill="#D1B888" transform="translate(0,0)"/>
<path d="" fill="#CFB58E" transform="translate(0,0)"/>
<path d="" fill="#CBAE86" transform="translate(0,0)"/>
<path d="" fill="#CAB083" transform="translate(0,0)"/>
<path d="" fill="#D2B988" transform="translate(0,0)"/>
<path d="" fill="#D3B88B" transform="translate(0,0)"/>
<path d="" fill="#D4B98B" transform="translate(0,0)"/>
<path d="" fill="#C4AB7F" transform="translate(0,0)"/>
<path d="" fill="#D4B78C" transform="translate(0,0)"/>
<path d="" fill="#D3B88A" transform="translate(0,0)"/>
<path d="" fill="#CCB485" transform="translate(0,0)"/>
<path d="" fill="#CBB181" transform="translate(0,0)"/>
<path d="" fill="#CAB283" transform="translate(0,0)"/>
<path d="" fill="#CCB384" transform="translate(0,0)"/>
<path d="" fill="#C9B082" transform="translate(0,0)"/>
<path d="" fill="#C8B280" transform="translate(0,0)"/>
<path d="" fill="#D3B98A" transform="translate(0,0)"/>
<path d="" fill="#D2B78B" transform="translate(0,0)"/>
<path d="" fill="#C8AF7F" transform="translate(0,0)"/>
<path d="" fill="#CCB283" transform="translate(0,0)"/>
<path d="" fill="#BFA67A" transform="translate(0,0)"/>
</svg>
